# xmcd
#
# Track frame offsets:
#	150
#	15763
#	25019
#	42145
#	52915
#	70750
#	90068
#	98734
#	112909
#	123336
#	136669
#	152086
#	162274
#	177744
#	193118
#	203432
#	218038
#	231069
#	242466
#	256586
#
# Disc length: 3624 seconds
#
# Revision: 2
# Processed by: cddbd v1.5.1PL0 Copyright (c) Steve Scherf et al.
# Submitted via: CDmax 2.0
#
DISCID=e50e2614
DTITLE=Vitorino - As mais bonitas
DYEAR=1900
DGENRE=Country
TTITLE0=Menina estas a Janela
TTITLE1=tinta verde
TTITLE2=queda do imperio
TTITLE3=tragedia da rua das Gaveas
TTITLE4=sul
TTITLE5=Joana Rosa
TTITLE6=Tango do Marido infiel numa pensao
TTITLE7=Andando pela vida
TTITLE8=Dama de copas
TTITLE9=Leitaria Garrett
TTITLE10=marcha ingenua
TTITLE11=o rama, o que linda rama
TTITLE12=negro fado
TTITLE13=flor de jaracanda
TTITLE14=Poema
TTITLE15=ilha (Lua extravagante)
TTITLE16=Bolero do coronel sensivel que fez....
TTITLE17=Ana II
TTITLE18=Laurinda
TTITLE19=Vou-me embora
EXTD=
EXTT0=
EXTT1=
EXTT2=
EXTT3=
EXTT4=
EXTT5=
EXTT6=
EXTT7=
EXTT8=
EXTT9=
EXTT10=
EXTT11=
EXTT12=
EXTT13=
EXTT14=
EXTT15=
EXTT16=
EXTT17=
EXTT18=
EXTT19=
PLAYORDER=
